<svg xmlns="http://www.w3.org/2000/svg" viewBox="0 0 800 500"><defs><linearGradient id="b" x2="1" y2="1"><stop stop-color="#020617"/><stop offset=".55" stop-color="#082f49"/><stop offset="1" stop-color="#312e81"/></linearGradient><radialGradient id="o"><stop stop-color="#fff"/><stop offset=".2" stop-color="#67e8f9"/><stop offset=".65" stop-color="#0284c7"/><stop offset="1" stop-color="#020617"/></radialGradient><linearGradient id="g"><stop stop-color="#fde68a"/><stop offset=".5" stop-color="#f59e0b"/><stop offset="1" stop-color="#fef3c7"/></linearGradient><filter id="glow"><feGaussianBlur stdDeviation="7" result="x"/><feMerge><feMergeNode in="x"/><feMergeNode in="SourceGraphic"/></feMerge></filter></defs><rect width="800" height="500" fill="url(#b)"/><g fill="none" stroke="#38bdf8" opacity=".45"><circle cx="400" cy="235" r="180" stroke-width="2"/><circle cx="400" cy="235" r="220" stroke-dasharray="8 15"/><path d="M0 340Q150 250 270 350T550 330T800 300" stroke-width="5"/></g><g filter="url(#glow)" fill="none" stroke="#67e8f9" stroke-width="7" stroke-linejoin="round"><path d="M130 65L250 190L215 230L320 240L285 310L410 350"/><path d="M650 45L560 155L600 210L475 225L515 300L390 365"/><path d="M340 30L370 115L340 155L425 185L400 235"/></g><circle cx="400" cy="230" r="112" fill="url(#o)" stroke="#a5f3fc" stroke-width="5" filter="url(#glow)"/><ellipse cx="400" cy="230" rx="155" ry="52" fill="none" stroke="url(#g)" stroke-width="8" transform="rotate(-25 400 230)"/><ellipse cx="400" cy="230" rx="150" ry="60" fill="none" stroke="#67e8f9" stroke-width="5" transform="rotate(35 400 230)"/><g fill="#fef3c7"><circle cx="225" cy="120" r="7"/><circle cx="595" cy="95" r="5"/><circle cx="555" cy="350" r="8"/><circle cx="230" cy="370" r="4"/><circle cx="470" cy="70" r="4"/></g><text x="400" y="450" text-anchor="middle" fill="#e0f2fe" font-family="Arial,sans-serif" font-weight="800" font-size="34" letter-spacing="8">RS FORCE</text></svg>